<svg width="20" height="20" viewBox="0 0 20 20" fill="none" xmlns="http://www.w3.org/2000/svg">
<g clip-path="url(#clip0_1856_14201)">
<path d="M10 20C15.5228 20 20 15.5228 20 10C20 4.47715 15.5228 0 10 0C4.47715 0 0 4.47715 0 10C0 15.5228 4.47715 20 10 20Z" fill="#D80027"/>
<path d="M9.59034 8.17134L10.4108 9.302L11.7396 8.87115L10.9178 10.0008L11.7382 11.1315L10.4099 10.699L9.58815 11.8286L9.58901 10.4317L8.26065 9.99923L9.58948 9.56837L9.59034 8.17134Z" fill="#F0F0F0"/>
<path d="M7.35119 12.8262C5.79041 12.8262 4.5251 11.5609 4.5251 10.0001C4.5251 8.43931 5.79041 7.17399 7.35119 7.17399C7.83783 7.17399 8.29572 7.29708 8.69549 7.51368C8.06834 6.90032 7.21064 6.5218 6.26424 6.5218C4.34322 6.5218 2.786 8.07907 2.786 10C2.786 11.921 4.34326 13.4783 6.26424 13.4783C7.21072 13.4783 8.06838 13.0997 8.69549 12.4864C8.29572 12.7031 7.83783 12.8262 7.35119 12.8262Z" fill="#F0F0F0"/>
</g>
<defs>
<clipPath id="clip0_1856_14201">
<rect width="20" height="20" fill="white"/>
</clipPath>
</defs>
</svg>
